<?xml version="1.0" standalone="no"?><!DOCTYPE svg PUBLIC "-//W3C//DTD SVG 1.1//EN" "http://www.w3.org/Graphics/SVG/1.1/DTD/svg11.dtd"><svg t="1738299689064" class="icon" viewBox="0 0 1024 1024" version="1.1" xmlns="http://www.w3.org/2000/svg" p-id="5221" xmlns:xlink="http://www.w3.org/1999/xlink" width="240" height="240"><path d="M902.545946 0.362456a83.787859 83.787859 0 0 1 83.787859 83.667041v855.820187a83.787859 83.787859 0 0 1-83.787859 83.72745H120.727292a83.72745 83.72745 0 0 1-83.787859-83.72745V84.029497A83.72745 83.72745 0 0 1 120.727292 0.362456h781.818654z m0 55.8183H120.727292a27.84874 27.84874 0 0 0-27.90915 27.848741v855.820187a27.90915 27.90915 0 0 0 27.90915 27.90915h781.818654a27.90915 27.90915 0 0 0 27.90915-27.90915V84.029497a27.90915 27.90915 0 0 0-27.90915-27.848741z m-116.167306 762.789688v55.8183H251.574086v-55.8183h534.864963z m0-148.848799v55.8183H251.574086v-55.8183h534.864963z m0-148.8488v55.8183H251.574086v-55.8183h534.864963zM418.4853 149.211256a83.787859 83.787859 0 0 1 83.78786 83.72745v111.57619a83.787859 83.787859 0 0 1-83.78786 83.72745H306.788291a83.787859 83.787859 0 0 1-83.787859-83.72745V232.938706A83.787859 83.787859 0 0 1 306.788291 149.211256h111.697009z m0 55.8183H306.788291a27.90915 27.90915 0 0 0-27.90915 27.90915v111.57619a27.90915 27.90915 0 0 0 27.90915 27.90915h111.697009a27.90915 27.90915 0 0 0 27.90915-27.90915V232.938706a27.84874 27.84874 0 0 0-27.90915-27.90915z m367.832931-55.8183v55.8183H619.890291V149.211256h166.42794z m0 0" fill="#FFFFFF" p-id="5222"></path></svg>