<?xml version="1.0" standalone="no"?><!DOCTYPE svg PUBLIC "-//W3C//DTD SVG 1.1//EN" "http://www.w3.org/Graphics/SVG/1.1/DTD/svg11.dtd"><svg t="1738300706544" class="icon" viewBox="0 0 1024 1024" version="1.1" xmlns="http://www.w3.org/2000/svg" p-id="5409" xmlns:xlink="http://www.w3.org/1999/xlink" width="240" height="240"><path d="M868.8 818.9H292.6c-3.2-2.7-5.9-6.6-9.6-8-26.3-10-33.9-28.5-33.7-54.9 1-126.8 0.8-253.6 0.1-380.4-0.1-23.4 10.9-37.8 31.9-45.5 11.7-4.3 24.7-7.1 37.2-7.2 81.6-0.6 163.3-0.3 244.9-0.3 93.8 0 187.6-0.1 281.4 0 48.7 0.1 66.4 16.9 66.4 62.4 0 118.5-1.3 237.1 0.8 355.5 0.6 35.1-5 61.9-42.4 74.6-0.7 0.2-0.6 2.5-0.8 3.8z m-21.2-49.2V370.5c-5.4-0.7-9.6-1.7-13.7-1.7-167.6-0.1-335.3 0.1-502.9-0.3-17.7 0-21 7.3-20.9 22.5 0.5 117.9 0.8 235.8-0.2 353.6-0.2 19.9 5.3 25.6 26.2 25.5 163.3-0.8 326.7-0.4 490-0.4h21.5z" fill="#FFFFFF" p-id="5410"></path><path d="M731.2 218.9c0.4 1.2 0.5 3.2 1.3 3.6 44.9 22.8 46.8 26.1 41.4 77.1H716c-0.8-9.3-1.7-18.7-2.6-29.7h-536v382.9c15 0.7 29 1.3 44.4 2v47.4c-26.4-3.5-53.2-4.7-78.5-11.3-11.9-3.1-20.9-16.4-31.3-25.1V256.1l51.6-37.2h567.6z" fill="#FFFFFF" p-id="5411"></path><path d="M163.6 218.9L112 256.1v-37.2h51.6z" fill="#FFFFFF" p-id="5412"></path><path d="M719.3 626.2c-1.3 0-2.6 0.1-3.9 0.2L574.9 517.5c-9.8-7.6-23.4-9.6-34.9-6.3l16.9-50.2c2.8-8.3-1.6-20.4-9.5-26.5l-45.9-35.6c-7.9-6.1-22.8-8.9-32.6-6l-25.4 7.5c-4.2 1.2-6.7 3.2-7.2 5.7s1 5.2 4.4 7.9l29.6 22.8c10.4 8.1 11.4 21.4 2.2 29.6l-28 24.9c-4.5 3.9-10.6 6.1-17.4 6.2-6.8 0-13.3-2.1-18.4-6l-29.5-22.8c-3.4-2.6-6.8-3.7-9.8-3.1-2.9 0.6-5.2 2.8-6.4 6.4l-7.2 21.5c-2.8 8.3 1.6 20.4 9.5 26.6l46 35.6c7.9 6.1 22.8 8.9 32.5 6l59.3-17.4c-3.3 9.7 0.1 20.8 9.9 28.4l140.5 108.8c0 1.1 0 2.1 0.1 3.2 2.4 32 35.7 57.8 74.3 57.6 38.6-0.2 68-26.3 65.6-58.3-2.3-32.3-35.5-58-74.2-57.8z m6.7 88.3c-20.3 0.1-37.7-13.4-39-30.2-0.6-8.1 2.6-15.8 9.1-21.5 6.5-5.8 15.4-9 25.3-9 20.2-0.1 37.7 13.4 39 30.2 1.2 16.7-14.2 30.4-34.4 30.5z" fill="#FFFFFF" p-id="5413"></path></svg>