<?xml version="1.0" standalone="no"?><!DOCTYPE svg PUBLIC "-//W3C//DTD SVG 1.1//EN" "http://www.w3.org/Graphics/SVG/1.1/DTD/svg11.dtd"><svg t="1738244719509" class="icon" viewBox="0 0 1024 1024" version="1.1" xmlns="http://www.w3.org/2000/svg" p-id="4189" xmlns:xlink="http://www.w3.org/1999/xlink" width="240" height="240"><path d="M518.1 1023.7H149.8C71.1 1023.7 7 959 7 879.4V145.1C7 65.5 71.1 0.8 149.8 0.8h589.4c78.7 0 142.7 64.7 142.7 144.3V465c0 23.2-18.8 42-42 42s-42-18.8-42-42V145.1c0-33.3-26.4-60.3-58.7-60.3H149.8c-32.4 0-58.7 27.1-58.7 60.3v734.3c0 33.3 26.4 60.3 58.7 60.3h368.4c23.2 0 42 18.8 42 42s-18.9 42-42.1 42z" fill="#2A51F2" p-id="4190"></path><path d="M640.5 205.1H246.4c-23.5 0-42.7 19.2-42.7 42.7s19.2 42.7 42.7 42.7h394.1c23.5 0 42.7-19.2 42.7-42.7s-19.2-42.7-42.7-42.7zM640.5 403.8H246.4c-23.5 0-42.7 19.2-42.7 42.7s19.2 42.7 42.7 42.7h394.1c23.5 0 42.7-19.2 42.7-42.7s-19.2-42.7-42.7-42.7zM475.5 602.4h-229c-23.5 0-42.7 19.2-42.7 42.7 0 23.5 19.2 42.7 42.7 42.7h229c23.5 0 42.7-19.2 42.7-42.7-0.1-23.5-19.3-42.7-42.7-42.7zM787.1 660c-16.5 0-29.9 13.5-29.9 29.9v92.3c0 16.5 13.5 29.9 29.9 29.9s29.9-13.5 29.9-29.9v-92.3c0.1-16.4-13.4-29.9-29.9-29.9z" fill="#2A51F2" p-id="4191"></path><path d="M864.1 752.3h-77c-16.5 0-29.9 13.5-29.9 29.9s13.5 29.9 29.9 29.9h77c16.5 0 29.9-13.5 29.9-29.9s-13.4-29.9-29.9-29.9z" fill="#2A51F2" p-id="4192"></path><path d="M787.5 1006.7c-62.9 0-122.1-24.5-166.6-69s-69-103.7-69-166.6c0-62.9 24.5-122.1 69-166.6s103.7-69 166.6-69 122.1 24.5 166.6 69 69 103.7 69 166.6c0 62.9-24.5 122.1-69 166.6s-103.7 69-166.6 69z m0-398.2c-89.7 0-162.6 73-162.6 162.6 0 89.7 73 162.6 162.6 162.6s162.6-73 162.6-162.6c0-89.7-72.9-162.6-162.6-162.6z" fill="#2A51F2" p-id="4193"></path></svg>