<?xml version="1.0" standalone="no"?><!DOCTYPE svg PUBLIC "-//W3C//DTD SVG 1.1//EN" "http://www.w3.org/Graphics/SVG/1.1/DTD/svg11.dtd"><svg t="1738301021938" class="icon" viewBox="0 0 1024 1024" version="1.1" xmlns="http://www.w3.org/2000/svg" p-id="7489" xmlns:xlink="http://www.w3.org/1999/xlink" width="240" height="240"><path d="M400.42 430.006C347.084 394.086 312 333.14 312 264c0-110.457 89.543-200 200-200s200 89.543 200 200c0 69.14-35.084 130.086-88.42 166.006C817.02 479.593 960 655.1 960 864h-72c0-207.66-168.34-376-376-376S136 656.34 136 864H64c0-208.901 142.981-384.407 336.42-433.994zM512 392c70.692 0 128-57.308 128-128 0-70.692-57.308-128-128-128-70.692 0-128 57.308-128 128 0 70.692 57.308 128 128 128z" fill="#FFFFFF" p-id="7490"></path></svg>