<?xml version="1.0" standalone="no"?><!DOCTYPE svg PUBLIC "-//W3C//DTD SVG 1.1//EN" "http://www.w3.org/Graphics/SVG/1.1/DTD/svg11.dtd"><svg t="1738299914169" class="icon" viewBox="0 0 1024 1024" version="1.1" xmlns="http://www.w3.org/2000/svg" p-id="8479" xmlns:xlink="http://www.w3.org/1999/xlink" width="240" height="240"><path d="M436.9 539.8c-0.1 1.3-0.2 2.6-0.4 3.9-0.1 0.7-0.3 1.4-0.4 2.1-0.2 1-0.5 2-0.9 3-0.2 0.7-0.5 1.4-0.8 2.1l-1.2 2.7c-0.3 0.7-0.7 1.4-1.1 2l-1.8 2.7c-0.4 0.6-0.8 1.2-1.3 1.8-1.2 1.5-2.6 3-4.1 4.5l-0.2 0.2c-2.5 2.3-5.4 4.4-8.6 6.3-0.4 0.3-0.8 0.6-1.3 0.8-2.4 1.4-5.1 2.7-7.8 3.9-0.9 0.4-1.9 0.7-2.9 1.1-1.8 0.7-3.6 1.4-5.5 2-4.2 1.3-8.6 2.4-13.2 3.3-1.5 0.3-2.9 0.5-4.4 0.8-2 0.3-4 0.6-6.1 0.8-1.8 0.2-3.7 0.4-5.5 0.5-1.8 0.1-3.6 0.3-5.4 0.4-2 0.1-4 0.1-6 0.2h-5.6c-2 0-3.9-0.1-5.9-0.2-2.1-0.1-4.3-0.2-6.4-0.3-1.9-0.1-3.8-0.3-5.7-0.5-2.6-0.3-5.2-0.5-7.8-0.9-1.8-0.2-3.5-0.5-5.3-0.8-3.5-0.5-7-1.2-10.5-1.8-1.4-0.3-2.8-0.5-4.2-0.8-5.6-1.2-11.3-2.6-16.9-4.2l-3-0.9c-7.6-2.2-15.1-4.7-22.5-7.6-1.2-0.5-2.4-1-3.7-1.5-3.9-1.6-7.8-3.3-11.6-5.1-1.4-0.7-2.9-1.3-4.3-2-4.9-2.4-9.8-4.9-14.5-7.6-38.7-22.3-59.6-49.6-59.5-72.7l-0.1 19c-0.1 23 20.8 50.3 59.5 72.7 4.7 2.7 9.6 5.2 14.5 7.6 1.4 0.7 2.9 1.4 4.3 2 3.8 1.8 7.7 3.5 11.6 5.1 0.9 0.4 1.7 0.8 2.6 1.1 0.3 0.1 0.7 0.2 1 0.3 7.4 2.9 15 5.4 22.5 7.6 0.5 0.2 1.1 0.4 1.6 0.6 0.4 0.1 0.9 0.2 1.3 0.3 5.6 1.6 11.3 3 16.9 4.2 0.4 0.1 0.7 0.2 1.1 0.3 1.1 0.2 2.1 0.3 3.1 0.5 3.5 0.7 7 1.3 10.5 1.8 0.8 0.1 1.7 0.3 2.5 0.4 1 0.1 1.9 0.2 2.9 0.3l7.8 0.9c1.1 0.1 2.2 0.3 3.3 0.4 0.8 0.1 1.6 0.1 2.4 0.1 2.2 0.2 4.3 0.3 6.4 0.3 1.2 0.1 2.5 0.2 3.7 0.2h11.5c0.8 0 1.5-0.1 2.3-0.2 1.8-0.1 3.6-0.2 5.4-0.4 1.1-0.1 2.3-0.1 3.4-0.2l2.1-0.3c2.1-0.2 4.1-0.5 6.1-0.8 1.1-0.2 2.2-0.3 3.2-0.4l1.2-0.3c4.6-0.9 9-2 13.2-3.3 0.2-0.1 0.4-0.1 0.6-0.2 1.7-0.6 3.3-1.2 4.9-1.9 0.9-0.4 1.9-0.7 2.9-1.1 2.7-1.2 5.3-2.5 7.8-3.9 0.3-0.2 0.5-0.3 0.8-0.5 0.2-0.1 0.3-0.3 0.5-0.4 3.2-2 6.1-4.1 8.6-6.3 0.1 0 0.1-0.1 0.1-0.1 1.5-1.4 2.9-2.9 4.1-4.5 0.1-0.2 0.3-0.3 0.4-0.5 0.3-0.4 0.6-0.9 0.9-1.3 0.6-0.9 1.3-1.8 1.8-2.7 0.2-0.3 0.4-0.5 0.5-0.8 0.2-0.4 0.4-0.8 0.6-1.3 0.5-0.9 0.9-1.8 1.2-2.7 0.1-0.3 0.3-0.7 0.5-1 0.1-0.4 0.2-0.8 0.3-1.1 0.3-1 0.6-2 0.8-3 0.1-0.4 0.3-0.8 0.4-1.2 0.1-0.3 0-0.6 0.1-0.9 0.2-1.3 0.4-2.6 0.4-3.9 0-0.4 0.1-0.8 0.1-1.3v-0.9l0.1-19c0.2 1.1 0.1 1.8 0.1 2.5z" fill="#D4E4FC" p-id="8480"></path><path d="M354 610.9h-1.8l-4.8-0.1c-3.6-0.2-5.7-0.3-7.9-0.4l-5.9-0.5c-2.6-0.3-5.3-0.6-8-0.9l-4.6-0.6c-4.5-0.7-8-1.3-11.6-2l-3.2-0.6c-6.9-1.5-12.7-2.9-18.5-4.6l-2.7-0.8c-8.3-2.4-16-5.1-23.4-7.9l-2.8-1.1c-5-2.1-9-3.8-12.9-5.6l-4.5-2.1c-5-2.4-10.1-5-14.9-7.8-39.6-22.8-63.1-52.3-63.1-78.8l0.1-19 14.2 0.1c-0.1 21.1 21.4 46.5 56 66.5 4.6 2.6 9.3 5.1 14.1 7.4l4.2 2c3.7 1.7 7.4 3.3 11.3 4.9l3.5 1.4c7 2.7 14.4 5.2 22 7.4l2.9 0.9c5.5 1.5 11 2.9 16.4 4l2.9 0.6c4.6 0.9 8 1.5 11.4 2l5.2 0.7c2.5 0.3 5 0.6 7.5 0.8l5.5 0.5c2.1 0.2 4.1 0.3 6.2 0.3 2 0.1 3.9 0.2 5.8 0.2h5.4c1.9 0 3.9-0.1 5.8-0.2 1.7-0.1 3.5-0.2 5.2-0.3 1.8-0.1 3.5-0.3 5.2-0.5 2-0.2 3.9-0.5 5.8-0.8l4.2-0.7c4.3-0.8 8.5-1.8 12.4-3.1 1.8-0.6 3.4-1.2 5.1-1.9l1.4-0.5c3.7-1.5 6-2.7 8.2-4 4.1-2.5 6.6-4.4 8.6-6.2 1.4-1.3 2.6-2.6 3.6-3.9l1.1-1.5c0.5-0.7 1-1.4 1.5-2.2l0.8-1.6c0.4-0.7 0.7-1.4 1-2.1l0.6-1.7c0.3-0.8 0.5-1.6 0.7-2.4l0.3-1.6c0.2-1.1 0.3-2.1 0.4-3.1l0.1-1.8 14.2 0.4-0.1 18.6c0 1.6-0.1 2.1-0.2 2.7-0.1 1.6-0.3 3.1-0.5 4.7-0.2 1.5-0.4 2-0.5 2.5-0.3 1.3-0.7 2.5-1.1 3.7l-0.9 2.6c-0.5 1.1-1 2.1-1.5 3.2l-0.7 1.4-6.5-3 5.7 4.2c-0.5 0.8-1.2 1.9-2 3-0.4 0.6-0.7 1.1-1.1 1.6-1.9 2.3-3.5 4-5.3 5.7-2.9 2.7-6 5-9.8 7.3l-1.4 0.9c-2.7 1.6-5.5 3-8.5 4.3-0.7 0.3-1.5 0.6-2.2 0.9l-4.5-5.9 2.7 6.6c-1.4 0.6-2.8 1.1-4.2 1.6-5.1 1.6-9.8 2.7-14.7 3.7l-3.4 0.6c-3.3 0.5-5.5 0.8-7.6 1l-4.4 0.5c-3.2 0.2-5.1 0.4-7 0.4l-4.9 0.2c-2.6-0.2-4.2-0.2-5.6-0.2z m-14.9-14.8c3.5 0.2 5.5 0.3 7.6 0.4l3.6 0.2 2.1 7.1 0.1-7.1h8.9l2.5 7-0.3-7.1c1.7-0.1 3.5-0.2 5.2-0.3l5.3-0.5c2-0.2 3.9-0.5 5.8-0.8l4.2-0.7c4.4-0.8 8.5-1.8 12.4-3.1 1.8-0.5 2.9-1 4-1.4l3.7-1.4c2.5-1.1 4.9-2.3 7.1-3.5 0.4-0.3 0.8-0.6 1.3-0.9 2.8-1.7 5.3-3.6 7.3-5.4 1.2-1.2 2.3-2.3 3.2-3.4-1 0.7-2.1 1.4-3.2 2l-5-5.2 3.6 6.1c-2.7 1.6-5.5 3-8.5 4.3l-2 0.8c-3 1.2-5 1.9-7 2.6-4.4 1.4-9.1 2.6-14 3.5-1.5 0.3-3.1 0.5-4.7 0.8-2.1 0.3-4.2 0.6-6.4 0.9-1.9 0.2-3.8 0.4-5.8 0.5-1.8 0.1-3.7 0.3-5.6 0.4-2 0.1-4.1 0.2-6.2 0.2h-5.8c-2 0-4-0.1-6.1-0.2-2.2-0.1-4.4-0.2-6.7-0.4l-5.9-0.5c-2.7-0.3-5.3-0.6-8-0.9l-5.5-0.8c-3.6-0.6-7.2-1.2-10.9-1.9l-4.2-0.8c-5.8-1.2-11.6-2.7-17.4-4.3l-1.9-0.6c-9.2-2.7-16.9-5.3-24.3-8.2l-2.7-1.1c-5.1-2.1-9-3.8-13-5.6l-4.4-2.1c-5.1-2.5-10.1-5.1-15-7.9-9.7-5.6-18.5-11.6-26.1-17.9 8.9 8.6 20.1 17 33.2 24.5 4.6 2.6 9.3 5.1 14.1 7.4l3.4 1.6c4.5 2.1 8.3 3.7 12.1 5.3l3.5 1.4c7.1 2.7 14.5 5.2 22 7.4l1.6 0.6c6.8 1.8 12.3 3.2 17.7 4.3l4.2 0.8c3.4 0.7 6.8 1.3 10.2 1.8l1.4 7.5 1-7 2.8 0.3c2.5 0.3 5 0.6 7.5 0.8l1.9 0.2 0.8 7.2 1.3-6.9z" fill="#0276F7" p-id="8481"></path><path d="M377.5 464.9c61.3 35.4 78 83.3 37.2 107C374 595.6 291.4 586 230 550.6c-61.3-35.4-78-83.2-37.2-106.9 40.7-23.6 123.4-14.2 184.7 21.2z" fill="#D4E4FC" p-id="8482"></path><path d="M354.8 592.2c-40.8 0-88.4-12.3-128.3-35.4-39.4-22.8-63-52.2-63.1-78.6 0-11.7 4.5-28.1 25.8-40.5 42.6-24.8 128.7-15.3 191.8 21.2 39.5 22.8 63 52.2 63.1 78.7 0 11.7-4.5 28.2-25.8 40.6-16.4 9.4-38.7 14-63.5 14zM252.5 437.7c-22.2 0-41.9 3.9-56.1 12.2-12.5 7.2-18.8 16.7-18.7 28.2 0 21 21.5 46.4 56 66.3 59.3 34.2 138.9 43.8 177.6 21.3 12.5-7.2 18.8-16.7 18.8-28.3 0-21-21.5-46.5-56-66.4-37.6-21.6-83.3-33.3-121.6-33.3z" fill="#0276F7" p-id="8483"></path><path d="M316 495.4c17.8 10.3 22.6 24.1 10.8 31s-35.8 4.1-53.5-6.2c-17.8-10.3-22.6-24.1-10.8-31 11.8-6.8 35.8-4.1 53.5 6.2z" fill="#FFFFFF" p-id="8484"></path><path d="M309.5 537.2c-12.8 0-27.5-3.7-39.8-10.8-13.2-7.6-20.8-17.5-20.8-27.1 0-6.7 3.5-12.4 10-16.1 14-8.1 40.6-5.4 60.7 6.1 13.2 7.6 20.8 17.5 20.8 27.2 0 6.7-3.5 12.4-10 16.1-5.4 3.1-12.8 4.6-20.9 4.6z m-29.7-44.6c-5.7 0-10.6 1-13.7 2.8-2.9 1.7-2.9 3.2-2.9 3.8 0 3.5 4.2 9.4 13.7 14.9 16.9 9.7 38 11 46.4 6.2 2.9-1.7 2.9-3.2 2.9-3.8 0-3.5-4.2-9.4-13.7-14.9-10.6-6.2-22.9-9-32.7-9z" fill="#0276F7" p-id="8485"></path><path d="M512.8 310.9l-32.9 306.8L98 397.2l32.9-306.8z" fill="#D4E4FC" p-id="8486"></path><path d="M479.9 624.8c-1.2 0-2.5-0.3-3.6-1L94.5 403.3c-2.4-1.4-3.8-4.1-3.5-6.9l32.8-306.8c0.3-2.4 1.7-4.5 3.8-5.6 2.1-1.1 4.7-1 6.8 0.2l381.9 220.5c2.4 1.4 3.8 4.1 3.5 6.9L487 618.4c-0.3 2.4-1.7 4.5-3.8 5.6-1 0.5-2.2 0.8-3.3 0.8zM105.6 393.3L474 606.1l31.2-291.3L136.8 102l-31.2 291.3z" fill="#0276F7" p-id="8487"></path><path d="M512.8 310.9l32.8-19.1-32.9 306.8-32.8 19.1z" fill="#D4E4FC" p-id="8488"></path><path d="M479.9 624.8c-1.3 0-2.7-0.4-3.9-1.1-2.2-1.5-3.5-4.1-3.2-6.7l32.8-306.8c0.2-2.2 1.5-4.3 3.5-5.4l32.8-19.1c2.3-1.4 5.2-1.3 7.4 0.2s3.5 4.1 3.2 6.7l-32.8 306.8c-0.2 2.3-1.5 4.3-3.5 5.4l-32.8 19.1c-1 0.6-2.2 0.9-3.5 0.9z m39.6-309.6l-31 289.3 17.5-10.2L537 305l-17.5 10.2z" fill="#0276F7" p-id="8489"></path><path d="M130.9 90.4l32.7-19.1 382 220.5-32.8 19.1z" fill="#FFFFFF" p-id="8490"></path><path d="M512.8 318c-1.2 0-2.5-0.3-3.6-1L127.3 96.6c-2.2-1.3-3.5-3.6-3.6-6.2 0-2.5 1.3-4.9 3.5-6.2L160 65.1c2.2-1.3 4.9-1.3 7.1 0L549 285.6c2.2 1.3 3.6 3.6 3.6 6.2 0 2.5-1.3 4.9-3.5 6.2l-32.8 19c-1.1 0.7-2.3 1-3.5 1zM145 90.4l367.7 212.3 18.6-10.8L163.7 79.6 145 90.4z" fill="#0276F7" p-id="8491"></path><path d="M472.7 327.9l-25.4 237.9-314.6-186.2 25.5-237.8z" fill="#FFFFFF" p-id="8492"></path><path d="M447.3 572.9c-1.3 0-2.5-0.3-3.6-1L129.1 385.8c-2.4-1.4-3.7-4.1-3.5-6.9L151.1 141c0.3-2.4 1.7-4.5 3.9-5.6 2.2-1.1 4.7-1 6.8 0.2l314.6 186.2c2.4 1.4 3.7 4.1 3.5 6.9l-25.5 237.9c-0.3 2.4-1.7 4.5-3.9 5.6-1 0.4-2.1 0.7-3.2 0.7z m-307-197.1L441.4 554l23.8-222.3-301.1-178.2-23.8 222.3z" fill="#0276F7" p-id="8493"></path><path d="M819.6 761.1c-0.1 1.3-0.2 2.6-0.4 3.9-0.1 0.7-0.3 1.4-0.4 2.1-0.2 1-0.5 2-0.9 3-0.2 0.7-0.5 1.4-0.8 2.1l-1.2 2.7c-0.3 0.7-0.7 1.4-1.1 2l-1.8 2.7c-0.4 0.6-0.8 1.2-1.3 1.8-1.2 1.5-2.6 3-4.1 4.5l-0.2 0.2c-2.5 2.3-5.4 4.4-8.6 6.3-0.4 0.3-0.8 0.6-1.3 0.8-2.4 1.4-5.1 2.7-7.8 3.9-0.9 0.4-1.9 0.7-2.9 1.1-1.8 0.7-3.6 1.4-5.5 2-4.2 1.3-8.6 2.4-13.2 3.3-1.5 0.3-2.9 0.5-4.4 0.8-2 0.3-4 0.6-6.1 0.8-1.8 0.2-3.7 0.4-5.5 0.5-1.8 0.1-3.6 0.3-5.4 0.4-2 0.1-4 0.1-6 0.2h-5.6c-2 0-3.9-0.1-5.9-0.2-2.1-0.1-4.3-0.2-6.4-0.3-1.9-0.1-3.8-0.3-5.7-0.5-2.6-0.3-5.2-0.5-7.8-0.9-1.8-0.2-3.5-0.5-5.3-0.8-3.5-0.5-7-1.2-10.5-1.8-1.4-0.3-2.8-0.5-4.2-0.8-5.6-1.2-11.3-2.6-16.9-4.2l-3-0.9c-7.6-2.2-15.1-4.7-22.5-7.6-1.2-0.5-2.4-1-3.7-1.5-3.9-1.6-7.8-3.3-11.6-5.1-1.4-0.7-2.9-1.3-4.3-2-4.9-2.4-9.8-4.9-14.5-7.6-38.7-22.3-59.6-49.6-59.5-72.7l-0.1 19c-0.1 23 20.8 50.3 59.5 72.7 4.7 2.7 9.6 5.2 14.5 7.6 1.4 0.7 2.9 1.4 4.3 2 3.8 1.8 7.7 3.5 11.6 5.1 0.9 0.4 1.7 0.8 2.6 1.1 0.3 0.1 0.7 0.2 1 0.3 7.4 2.9 15 5.4 22.5 7.6 0.5 0.2 1.1 0.4 1.6 0.6 0.4 0.1 0.9 0.2 1.3 0.3 5.6 1.6 11.3 3 16.9 4.2 0.4 0.1 0.7 0.2 1.1 0.3 1.1 0.2 2.1 0.3 3.1 0.5 3.5 0.7 7 1.3 10.5 1.8 0.8 0.1 1.7 0.3 2.5 0.4 1 0.1 1.9 0.2 2.9 0.3l7.8 0.9c1.1 0.1 2.2 0.3 3.3 0.4 0.8 0.1 1.6 0.1 2.4 0.1 2.2 0.2 4.3 0.3 6.4 0.3 1.2 0.1 2.5 0.2 3.7 0.2h11.5c0.8 0 1.5-0.1 2.3-0.2 1.8-0.1 3.6-0.2 5.4-0.4 1.1-0.1 2.3-0.1 3.4-0.2l2.1-0.3c2.1-0.2 4.1-0.5 6.1-0.8 1.1-0.2 2.2-0.3 3.2-0.4l1.2-0.3c4.6-0.9 9-2 13.2-3.3 0.2-0.1 0.4-0.1 0.6-0.2 1.7-0.6 3.3-1.2 4.9-1.9 0.9-0.4 1.9-0.7 2.9-1.1 2.7-1.2 5.3-2.5 7.8-3.9 0.3-0.2 0.5-0.3 0.8-0.5 0.2-0.1 0.3-0.3 0.5-0.4 3.2-2 6.1-4.1 8.6-6.3 0.1 0 0.1-0.1 0.1-0.1 1.5-1.4 2.9-2.9 4.1-4.5 0.1-0.2 0.3-0.3 0.4-0.5 0.3-0.4 0.6-0.9 0.9-1.3 0.6-0.9 1.3-1.8 1.8-2.7 0.2-0.3 0.4-0.5 0.5-0.8 0.2-0.4 0.4-0.8 0.6-1.3 0.5-0.9 0.9-1.8 1.2-2.7 0.1-0.3 0.3-0.7 0.5-1 0.1-0.4 0.2-0.8 0.3-1.1 0.3-1 0.6-2 0.8-3 0.1-0.4 0.3-0.8 0.3-1.2 0.1-0.3 0-0.6 0.1-0.9 0.2-1.3 0.4-2.6 0.4-3.9 0-0.4 0.1-0.8 0.1-1.3v-0.9l0.1-19c0.4 1.1 0.3 1.8 0.2 2.5z" fill="#D4E4FC" p-id="8494"></path><path d="M736.8 832.2H735l-4.8-0.1c-3.6-0.2-5.7-0.3-7.9-0.4l-4.5-0.4c-4-0.4-6.7-0.7-9.4-1.1l-4.6-0.6c-4.5-0.7-8-1.3-11.6-2l-3.2-0.6c-6.9-1.5-12.7-2.9-18.5-4.6l-1.5-0.4 1.3-7.1-2.9 6.5c-7.9-2.3-15.7-4.9-23-7.8l-2.8-1.1c-5-2-8.9-3.8-12.9-5.6l-4.4-2.1c-5.1-2.5-10.1-5.1-15-7.9-39.6-22.8-63.2-52.3-63.1-78.8l0.1-19 14.2 0.1c-0.1 21 21.4 46.5 56 66.5 4.6 2.6 9.3 5.1 14.1 7.4l3.2 1.5c4.7 2.2 8.5 3.8 12.3 5.4l3.5 1.4c7 2.7 14.4 5.2 22 7.4l2.9 0.9c5.5 1.5 11 2.9 16.5 4l4.1 0.8c3.4 0.7 6.8 1.3 10.2 1.8l5.2 0.7c2.5 0.3 5 0.6 7.5 0.8l5.5 0.5c2.1 0.2 4.1 0.3 6.2 0.3 1.9 0.1 3.9 0.2 5.8 0.2l21.6-1c1.9-0.2 3.9-0.5 5.8-0.8l4.2-0.7c4.3-0.8 8.5-1.8 12.4-3.1 1.6-0.5 3.2-1.1 4.7-1.7l1.7-0.6c3.8-1.6 6.1-2.7 8.3-4 4.1-2.6 6.6-4.4 8.6-6.3 1.4-1.3 2.6-2.6 3.6-3.9l1.1-1.5c0.5-0.7 1-1.4 1.5-2.2l0.8-1.6c0.4-0.7 0.7-1.4 1-2.1l0.6-1.7c0.2-0.7 0.5-1.5 0.7-2.3l0.4-1.6c0.2-1.1 0.3-2.1 0.4-3.2l0.1-1.8 14.2 0.4-0.1 18.6c0 1.7-0.1 2.1-0.2 2.6-0.1 1.6-0.3 3.2-0.5 4.7-0.2 1.6-0.4 2-0.5 2.5-0.3 1.2-0.6 2.4-1 3.6l-0.4 1.4c-0.1 0.3-0.3 0.8-0.6 1.2-0.4 1-0.9 2-1.5 3.1l-0.7 1.5-6.5-3 5.7 4.2c-0.5 0.8-1.2 1.9-2 3-0.4 0.6-0.7 1.1-1.1 1.6-1.9 2.3-3.5 4-5.3 5.7-2.9 2.7-6 5-9.8 7.3l-1.4 0.9c-2.7 1.6-5.5 3-8.5 4.3l-2 0.8-4.7-5.8 2.7 6.6c-1.4 0.6-2.8 1.1-4.3 1.6-5.1 1.6-9.8 2.7-14.7 3.7l-1.5 0.3c-0.6 0.1-1.4 0.2-2.3 0.3-3 0.5-5.2 0.8-7.3 1l-4.4 0.5c-3.3 0.2-5.1 0.4-7.1 0.4l-4.9 0.2c-2.5 0.3-4.1 0.3-5.5 0.3z m-13.6-14.8c2.1 0.2 4.2 0.2 6.2 0.3l3.6 0.2 2.1 7.1 0.1-7.1c1.8 0.1 3.6 0 5.3 0h3.6l2.5 7-0.3-7.1c1.7-0.1 3.5-0.2 5.2-0.3l3.2-0.2 2.8 6.8-0.8-7.1c2-0.2 3.9-0.5 5.8-0.8l3-0.4c5.6-1.1 9.7-2.1 13.6-3.4 1.8-0.5 2.9-1 4-1.4l2.5-0.9c3.7-1.5 6.1-2.7 8.3-4 0.4-0.3 0.8-0.6 1.3-0.9 2.8-1.7 5.3-3.6 7.3-5.4 1.3-1.2 2.3-2.3 3.2-3.4-1 0.7-2 1.4-3.2 2l-5-5.2 3.6 6.1c-2.7 1.6-5.6 3-8.5 4.3-0.7 0.3-1.4 0.6-2.1 0.8l-4-6.1 2.6 6.6c-1.8 0.7-3.6 1.4-5.5 2-4.4 1.4-9.1 2.6-14 3.5-1.5 0.3-3.1 0.5-4.7 0.8-2.1 0.3-4.2 0.6-6.4 0.9l-23.4 1.1c-2 0-4.1-0.1-6.1-0.2-2.2-0.1-4.4-0.2-6.6-0.4l-5.8-0.5c-2.7-0.3-5.3-0.6-8-0.9l-5.5-0.8c-3.6-0.5-7.2-1.2-10.8-1.9l-4.3-0.8c-5.8-1.2-11.6-2.7-17.4-4.3l-2-0.6c-9.1-2.7-16.8-5.3-24.2-8.2l-2.7-1.1c-5.1-2.1-9.1-3.8-13-5.6l-4.4-2.1c-5.1-2.5-10.1-5.1-15-7.9-9.7-5.6-18.5-11.6-26.2-17.9 8.9 8.6 20.1 17 33.2 24.6 4.6 2.6 9.3 5.1 14.1 7.4l4.2 2c3.7 1.7 7.5 3.4 11.3 4.9l3.7 1.5c6.8 2.7 14.2 5.2 21.8 7.4l-0.4 7.4 1.9-6.8c6.8 1.9 12.3 3.2 17.8 4.4l4.2 0.8c3.4 0.7 6.8 1.3 10.2 1.8l1.4 7.5 1-7 2.8 0.3 7.5 0.9 3.2 0.3 1.8 7.2 0.4-7.2z" fill="#0276F7" p-id="8495"></path><path d="M760.3 686.2c61.3 35.4 78 83.3 37.2 107-40.7 23.7-123.4 14.1-184.7-21.3-61.3-35.4-78-83.2-37.2-106.9s123.4-14.2 184.7 21.2z" fill="#D4E4FC" p-id="8496"></path><path d="M737.5 813.4c-40.7 0-88.4-12.3-128.3-35.4-39.4-22.8-63-52.2-63.1-78.6 0-11.7 4.4-28.1 25.8-40.6 42.7-24.8 128.7-15.3 191.9 21.2 39.5 22.8 63 52.2 63.1 78.7 0 11.7-4.5 28.2-25.8 40.6-16.4 9.6-38.7 14.1-63.6 14.1zM635.2 659c-22.2 0-41.9 3.9-56.1 12.2-12.4 7.2-18.7 16.7-18.7 28.2 0 21 21.5 46.4 56 66.3 59.3 34.2 138.9 43.8 177.6 21.3 12.5-7.2 18.8-16.7 18.8-28.3 0-21-21.5-46.5-56-66.4-37.6-21.6-83.3-33.3-121.6-33.3z" fill="#0276F7" p-id="8497"></path><path d="M698.8 716.7c17.8 10.3 22.6 24.1 10.8 31-11.8 6.9-35.8 4.1-53.5-6.2-17.8-10.3-22.6-24.1-10.8-31s35.8-4.1 53.5 6.2z" fill="#FFFFFF" p-id="8498"></path><path d="M692.3 758.5c-12.8 0-27.5-3.7-39.8-10.8-13.2-7.6-20.8-17.5-20.8-27.2 0-6.6 3.5-12.4 10-16.1 14-8.1 40.6-5.4 60.7 6.1 13.2 7.6 20.8 17.5 20.8 27.2 0 6.7-3.5 12.4-10 16.1-5.5 3.2-12.8 4.7-20.9 4.7z m-29.8-44.6c-5.7 0-10.6 1-13.7 2.8-2.9 1.7-2.9 3.2-2.9 3.8 0 3.5 4.2 9.4 13.7 14.9 16.9 9.7 38 11.1 46.4 6.2 2.9-1.7 2.9-3.2 2.9-3.8 0-3.5-4.2-9.4-13.7-14.9-10.6-6.2-22.9-9-32.7-9z" fill="#0276F7" p-id="8499"></path><path d="M895.5 532.2L862.7 839 480.8 618.5l32.8-306.8z" fill="#D4E4FC" p-id="8500"></path><path d="M862.7 846.1c-1.2 0-2.5-0.3-3.6-1L477.2 624.6c-2.4-1.4-3.8-4.1-3.5-6.9l32.8-306.8c0.3-2.4 1.7-4.5 3.8-5.6 2.1-1.1 4.7-1 6.8 0.2l382 220.5c2.4 1.4 3.8 4.1 3.5 6.9l-32.8 306.8c-0.3 2.4-1.7 4.5-3.8 5.6-1.1 0.5-2.2 0.8-3.3 0.8zM488.4 614.6l368.5 212.7L888 536 519.5 323.3l-31.1 291.3z" fill="#0276F7" p-id="8501"></path><path d="M895.5 532.2l32.8-19.1-32.8 306.8-32.8 19.1z" fill="#D4E4FC" p-id="8502"></path><path d="M862.7 846.1c-1.3 0-2.7-0.4-3.9-1.1-2.2-1.5-3.5-4.1-3.2-6.7l32.8-306.8c0.2-2.3 1.5-4.3 3.5-5.4l32.8-19.1c2.3-1.3 5.2-1.2 7.4 0.2 2.2 1.5 3.5 4.1 3.2 6.7l-32.8 306.8c-0.2 2.3-1.5 4.3-3.5 5.4l-32.8 19.1c-1 0.6-2.3 0.9-3.5 0.9z m39.5-309.6l-31 289.3 17.5-10.2 31-289.3-17.5 10.2z" fill="#0276F7" p-id="8503"></path><path d="M513.6 311.7l32.8-19.1 381.9 220.5-32.8 19.1z" fill="#FFFFFF" p-id="8504"></path><path d="M895.6 539.3c-1.2 0-2.5-0.3-3.6-1L510.1 317.8c-2.2-1.3-3.5-3.6-3.6-6.2 0-2.5 1.3-4.9 3.5-6.2l32.8-19.1c2.2-1.3 4.9-1.3 7.1 0l382 220.7c2.2 1.3 3.5 3.6 3.6 6.1 0 2.5-1.3 4.9-3.5 6.2l-32.8 19.1c-1.2 0.6-2.4 0.9-3.6 0.9zM527.8 311.7L895.5 524l18.6-10.8-367.7-212.4-18.6 10.9z" fill="#0276F7" p-id="8505"></path><path d="M855.5 549.2l-25.4 237.9-314.6-186.2L540.9 363z" fill="#FFFFFF" p-id="8506"></path><path d="M830.1 794.2c-1.3 0-2.5-0.3-3.6-1L511.9 607c-2.4-1.4-3.7-4.1-3.5-6.9l25.5-237.9c0.3-2.4 1.7-4.5 3.9-5.6 2.2-1.1 4.7-1 6.8 0.2L859.2 543c2.4 1.4 3.7 4.1 3.5 6.9l-25.5 237.9c-0.3 2.4-1.7 4.5-3.9 5.6-1.1 0.5-2.2 0.8-3.2 0.8zM523 597.1l301.1 178.2L848 553 546.8 374.8 523 597.1z" fill="#0276F7" p-id="8507"></path><path d="M224.4 661.8l-121.7 70.7c-4.4 2.5-7.1 7.2-7.1 12.3 0 5.1 2.7 9.8 7.1 12.4l335 193.4c4.4 2.5 9.9 2.5 14.3 0l121.7-70.7c4.4-2.5 7.1-7.2 7.1-12.3 0-5.1-2.7-9.8-7.1-12.4l-335-193.4c-4.4-2.5-9.9-2.5-14.3 0z" fill="#D4E4FC" p-id="8508"></path><path d="M444.9 959.6c-3.7 0-7.4-0.9-10.7-2.8l-335-193.4c-6.6-3.8-10.7-10.9-10.7-18.5s4.1-14.6 10.6-18.4l121.7-70.7c6.6-3.8 14.8-3.8 21.4 0l335 193.4c6.6 3.8 10.7 10.9 10.7 18.5s-4.1 14.6-10.6 18.4l-121.6 70.7c-3.4 1.8-7.1 2.8-10.8 2.8zM228 668l-121.7 70.7c-2.2 1.3-3.5 3.6-3.5 6.1 0 2.6 1.4 4.9 3.5 6.2l335 193.4c2.2 1.3 4.9 1.2 7.1 0l121.7-70.7c2.2-1.3 3.5-3.6 3.5-6.1 0-2.5-1.4-4.9-3.6-6.2L235.1 668a6.95 6.95 0 0 0-7.1 0z" fill="#0276F7" p-id="8509"></path><path d="M360.7 888.9c-2.5 0-4.8-1.3-6.2-3.5-2-3.4-0.8-7.7 2.6-9.7L484 801.8c3.4-2 7.7-0.8 9.7 2.6 2 3.4 0.8 7.7-2.6 9.7l-126.9 73.8c-1.1 0.6-2.3 1-3.5 1z" fill="#0276F7" p-id="8510"></path><path d="M314.1 832.9c-1.2 0-2.5-0.3-3.6-1l-123.9-73.8c-3.4-2-4.5-6.4-2.5-9.7 2-3.4 6.4-4.5 9.7-2.5l123.9 73.8c3.4 2 4.5 6.4 2.5 9.7-1.3 2.3-3.6 3.5-6.1 3.5z" fill="#0276F7" p-id="8511"></path><path d="M444.9 936.9c-1.2 0-2.4-0.3-3.5-0.9L97.5 739.7c-3.4-1.9-4.6-6.3-2.6-9.7 1.9-3.4 6.3-4.6 9.7-2.7L445 921.5l103.4-58.4c3.4-1.9 7.8-0.7 9.7 2.7 1.9 3.4 0.7 7.8-2.7 9.7l-107 60.5c-1.1 0.6-2.3 0.9-3.5 0.9z" fill="#0276F7" p-id="8512"></path><path d="M337.2 399.3c-1.2 0-2.5-0.3-3.6-1L286 370.5l-8.2 13.4c-1.5 2.4-4.2 3.8-7 3.3-2.8-0.4-5.1-2.4-5.9-5.1l-8.9-31.4-17.2-49.4-11 40.7c-0.8 3-3.6 5.2-6.7 5.2-2.8 0.2-6-2-6.9-5l-5.3-16.8-54-31.5c-3.4-2-4.5-6.3-2.6-9.7 2-3.4 6.3-4.5 9.7-2.6l56.4 32.9c0.7 0.4 1.2 0.9 1.7 1.4l11-40.6c0.8-3 3.5-5.1 6.6-5.2 3.1-0.3 5.9 1.8 7 4.8l24.9 71.5 4.6 16.2 3.4-5.5c2-3.3 6.3-4.4 9.6-2.4l53.7 31.3c3.4 2 4.5 6.3 2.6 9.7-1.5 2.3-3.8 3.6-6.3 3.6z" fill="#0276F7" p-id="8513"></path><path d="M458.3 468.4c-1.2 0-2.5-0.3-3.6-1l-92.6-54.1c-3.4-2-4.5-6.3-2.6-9.7 2-3.4 6.3-4.5 9.7-2.6l92.6 54.1c3.4 2 4.5 6.3 2.6 9.7-1.3 2.3-3.6 3.6-6.1 3.6z" fill="#0276F7" p-id="8514"></path><path d="M704.4 503.3c17 9.9 28.4 33.2 25.5 52.2-2.9 18.9-19.1 26.2-36.1 16.3-17-9.9-28.4-33.2-25.5-52.1 3-19 19.1-26.3 36.1-16.4z" fill="#D4E4FC" p-id="8515"></path><path d="M708.7 583.3c-6 0-12.4-1.8-18.5-5.3-19.6-11.4-32.3-37.5-28.9-59.4 1.8-11.4 7.6-19.9 16.4-24.1 8.9-4.2 20-3.3 30.3 2.7 19.6 11.4 32.3 37.5 28.9 59.4-1.8 11.4-7.6 19.9-16.4 24.1-3.6 1.7-7.6 2.6-11.8 2.6zM689.6 506c-2.1 0-4 0.4-5.8 1.2-4.4 2.1-7.4 6.9-8.4 13.5-2.5 16 7.6 36.5 22 44.9 6.3 3.7 12.4 4.4 17.1 2.2 4.4-2.1 7.4-6.9 8.4-13.4 2.5-16-7.6-36.5-22-44.9-4-2.3-7.9-3.5-11.3-3.5z" fill="#0276F7" p-id="8516"></path><path d="M727.5 607.6c15 8.7 25.1 29.5 22.5 46.2l-10.4 67c-0.1 0.9-0.3 1.8-0.5 2.6-1.6 6.7-7 7.2-11.9 4.4-5.4-3.2-87-49.4-93-52.9-5.4-3.1-10.1-9.9-9.6-17.9 0.1-1 0.2-2 0.3-2.9l10.4-67c2.6-16.7 17-23.2 31.9-14.5l60.3 35z" fill="#D4E4FC" p-id="8517"></path><path d="M732.7 736.5c-2.9 0-5.9-0.9-8.9-2.6-2.7-1.6-24.2-13.8-45.8-26-22-12.5-44.2-25.1-47.2-26.9-8.6-5-13.8-14.7-13.1-24.6 0.1-1.2 0.2-2.4 0.4-3.5l10.4-67c1.6-10.2 7-18.1 15-21.9 8.2-3.9 18.2-3 27.6 2.4l60.2 35c17.6 10.2 29 33.7 26 53.4l-10.4 67c-0.2 1.1-0.4 2.1-0.6 3.2-1.2 5.1-4.2 8.7-8.2 10.5-1.8 0.7-3.6 1-5.4 1z m-78.4-160.7c-1.7 0-3.3 0.3-4.8 1-3.7 1.8-6.2 5.8-7 11.3l-10.4 67c-0.1 0.7-0.2 1.6-0.2 2.4-0.3 5.1 2.8 9.3 6.1 11.2 3 1.8 25.1 14.3 47.1 26.8 21.7 12.3 43.2 24.5 45.9 26.1 1 0.6 1.5 0.5 1.8 0.7-0.2-1.2-0.1-1.9 0-2.6l10.4-67c2.1-13.8-6.6-31.7-19.1-38.9l-60.2-35c-3.4-2-6.7-3-9.6-3z" fill="#0276F7" p-id="8518"></path></svg>